<?xml version="1.0" standalone="no"?>
 <!DOCTYPE svg PUBLIC "-//W3C//DTD SVG 1.1//EN" 
 "http://www.w3.org/Graphics/SVG/1.1/DTD/svg11.dtd"> 
<svg xmlns="http://www.w3.org/2000/svg" version="1.1" 
    width="7.82828cm" height="10.0406cm" viewBox="0 0 30820 39530 ">
<title>SVG Picture created as eeprom_programer-B_Cu.svg date 2015/02/05 18:39:01 </title>
  <desc>Picture generated by PCBNEW </desc>
<g style="fill:#000000; fill-opacity:1;stroke:#000000; stroke-opacity:1;
stroke-linecap:round; stroke-linejoin:round; "
 transform="translate(0 0) scale(1 1)">
</g>
<g style="fill:#000000; fill-opacity:0.0; 
stroke:#000000; stroke-width:39.3701; stroke-opacity:1; 
stroke-linecap:round; stroke-linejoin:round;">
<path d="M19 19
L30269 19
" />
<path d="M19 39519
L19 19
" />
<path d="M30269 39519
L19 39519
" />
<path d="M30269 19
L30269 39519
" />
<path d="M30269 39519
L30269 19
" />
<path d="M19 39519
L30269 39519
" />
</g>
<g style="fill:#000000; fill-opacity:1.0; 
stroke:#000000; stroke-width:39.3701; stroke-opacity:1; 
stroke-linecap:round; stroke-linejoin:round;">
<circle cx="2019.69" cy="34519.7" r="275.591" /> 
<circle cx="4019.69" cy="34519.7" r="275.591" /> 
<circle cx="2019.69" cy="37519.7" r="275.591" /> 
<circle cx="4019.69" cy="37519.7" r="275.591" /> 
<circle cx="22269.7" cy="37708.7" r="275.815" /> 
<circle cx="22269.7" cy="36330.7" r="275.815" /> 
<circle cx="12375.7" cy="24769.7" r="271.815" /> 
<circle cx="13163.7" cy="24769.7" r="271.815" /> 
<circle cx="21625.7" cy="4769.69" r="271.815" /> 
<circle cx="22413.7" cy="4769.69" r="271.815" /> 
<circle cx="12875.7" cy="34519.7" r="271.815" /> 
<circle cx="13663.7" cy="34519.7" r="271.815" /> 
<polyline style="fill-rule:evenodd;"
points="27389,32449
28150,32449
28150,33090
27389,33090
27389,32449
" /> 
</g>
<g style="fill:#000000; fill-opacity:1.0; 
stroke:#000000; stroke-width:680; stroke-opacity:1; 
stroke-linecap:round; stroke-linejoin:round;">
</g>
<g style="fill:#000000; fill-opacity:0.0; 
stroke:#000000; stroke-width:680; stroke-opacity:1; 
stroke-linecap:round; stroke-linejoin:round;">
<path d="M27829 33769
L27709 33769
" />
<path d="M27829 34769
L27709 34769
" />
<path d="M27829 35769
L27709 35769
" />
<path d="M27829 36769
L27709 36769
" />
<path d="M27829 37769
L27709 37769
" />
</g>
<g style="fill:#000000; fill-opacity:0.0; 
stroke:#000000; stroke-width:39.3701; stroke-opacity:1; 
stroke-linecap:round; stroke-linejoin:round;">
</g>
<g style="fill:#000000; fill-opacity:1.0; 
stroke:#000000; stroke-width:39.3701; stroke-opacity:1; 
stroke-linecap:round; stroke-linejoin:round;">
<circle cx="9769.69" cy="37769.7" r="310.315" /> 
<circle cx="8769.69" cy="37769.7" r="310.315" /> 
<circle cx="5300.69" cy="34519.7" r="373.815" /> 
<circle cx="9300.69" cy="34519.7" r="373.815" /> 
<circle cx="11519.7" cy="37738.7" r="373.815" /> 
<circle cx="11519.7" cy="33738.7" r="373.815" /> 
</g>
<g style="fill:#000000; fill-opacity:1.0; 
stroke:#000000; stroke-width:787; stroke-opacity:1; 
stroke-linecap:round; stroke-linejoin:round;">
</g>
<g style="fill:#000000; fill-opacity:0.0; 
stroke:#000000; stroke-width:787; stroke-opacity:1; 
stroke-linecap:round; stroke-linejoin:round;">
<path d="M15808 34421
L15808 34618
" />
<path d="M17730 34421
L17730 34618
" />
</g>
<g style="fill:#000000; fill-opacity:0.0; 
stroke:#000000; stroke-width:39.3701; stroke-opacity:1; 
stroke-linecap:round; stroke-linejoin:round;">
</g>
<g style="fill:#000000; fill-opacity:1.0; 
stroke:#000000; stroke-width:39.3701; stroke-opacity:1; 
stroke-linecap:round; stroke-linejoin:round;">
<circle cx="15769.7" cy="36269.7" r="255.315" /> 
<circle cx="15769.7" cy="38269.7" r="255.315" /> 
<circle cx="17769.7" cy="36269.7" r="255.315" /> 
<circle cx="17769.7" cy="38269.7" r="255.315" /> 
<polyline style="fill-rule:evenodd;"
points="4014,32775
4014,32264
4525,32264
4525,32775
4014,32775
" /> 
<circle cx="5269.69" cy="32519.7" r="255.315" /> 
<circle cx="6269.69" cy="32519.7" r="255.315" /> 
<circle cx="7269.69" cy="32519.7" r="255.315" /> 
<circle cx="8269.69" cy="32519.7" r="255.315" /> 
<circle cx="9269.69" cy="32519.7" r="255.315" /> 
<circle cx="10269.7" cy="32519.7" r="255.315" /> 
<circle cx="11269.7" cy="32519.7" r="255.315" /> 
<circle cx="12269.7" cy="32519.7" r="255.315" /> 
<circle cx="13269.7" cy="32519.7" r="255.315" /> 
<circle cx="14269.7" cy="32519.7" r="255.315" /> 
<circle cx="15269.7" cy="32519.7" r="255.315" /> 
<circle cx="16269.7" cy="32519.7" r="255.315" /> 
<circle cx="17269.7" cy="32519.7" r="255.315" /> 
<circle cx="18269.7" cy="32519.7" r="255.315" /> 
<circle cx="19269.7" cy="32519.7" r="255.315" /> 
<circle cx="20269.7" cy="32519.7" r="255.315" /> 
<circle cx="21269.7" cy="32519.7" r="255.315" /> 
<circle cx="22269.7" cy="32519.7" r="255.315" /> 
<circle cx="23269.7" cy="32519.7" r="255.315" /> 
<circle cx="23269.7" cy="26519.7" r="255.315" /> 
<circle cx="22269.7" cy="26519.7" r="255.315" /> 
<circle cx="21269.7" cy="26519.7" r="255.315" /> 
<circle cx="20269.7" cy="26519.7" r="255.315" /> 
<circle cx="19269.7" cy="26519.7" r="255.315" /> 
<circle cx="18269.7" cy="26519.7" r="255.315" /> 
<circle cx="17269.7" cy="26519.7" r="255.315" /> 
<circle cx="16269.7" cy="26519.7" r="255.315" /> 
<circle cx="15269.7" cy="26519.7" r="255.315" /> 
<circle cx="14269.7" cy="26519.7" r="255.315" /> 
<circle cx="13269.7" cy="26519.7" r="255.315" /> 
<circle cx="12269.7" cy="26519.7" r="255.315" /> 
<circle cx="11269.7" cy="26519.7" r="255.315" /> 
<circle cx="10269.7" cy="26519.7" r="255.315" /> 
<circle cx="9269.69" cy="26519.7" r="255.315" /> 
<circle cx="8269.69" cy="26519.7" r="255.315" /> 
<circle cx="7269.69" cy="26519.7" r="255.315" /> 
<circle cx="6269.69" cy="26519.7" r="255.315" /> 
<circle cx="5269.69" cy="26519.7" r="255.315" /> 
<circle cx="4269.69" cy="26519.7" r="255.315" /> 
<polyline style="fill-rule:evenodd;"
points="10514,4514
11025,4514
11025,5025
10514,5025
10514,4514
" /> 
<circle cx="10769.7" cy="5769.69" r="255.315" /> 
<circle cx="10769.7" cy="6769.69" r="255.315" /> 
<circle cx="10769.7" cy="7769.69" r="255.315" /> 
<circle cx="10769.7" cy="8769.69" r="255.315" /> 
<circle cx="10769.7" cy="9769.69" r="255.315" /> 
<circle cx="10769.7" cy="10769.7" r="255.315" /> 
<circle cx="10769.7" cy="11769.7" r="255.315" /> 
<circle cx="10769.7" cy="12769.7" r="255.315" /> 
<circle cx="10769.7" cy="13769.7" r="255.315" /> 
<circle cx="10769.7" cy="14769.7" r="255.315" /> 
<circle cx="10769.7" cy="15769.7" r="255.315" /> 
<circle cx="10769.7" cy="16769.7" r="255.315" /> 
<circle cx="10769.7" cy="17769.7" r="255.315" /> 
<circle cx="16769.7" cy="17769.7" r="255.315" /> 
<circle cx="16769.7" cy="16769.7" r="255.315" /> 
<circle cx="16769.7" cy="15769.7" r="255.315" /> 
<circle cx="16769.7" cy="14769.7" r="255.315" /> 
<circle cx="16769.7" cy="13769.7" r="255.315" /> 
<circle cx="16769.7" cy="12769.7" r="255.315" /> 
<circle cx="16769.7" cy="11769.7" r="255.315" /> 
<circle cx="16769.7" cy="10769.7" r="255.315" /> 
<circle cx="16769.7" cy="9769.69" r="255.315" /> 
<circle cx="16769.7" cy="8769.69" r="255.315" /> 
<circle cx="16769.7" cy="7769.69" r="255.315" /> 
<circle cx="16769.7" cy="6769.69" r="255.315" /> 
<circle cx="16769.7" cy="5769.69" r="255.315" /> 
<circle cx="16769.7" cy="4769.69" r="255.315" /> 
<circle cx="8269.69" cy="869.685" r="373.815" /> 
<circle cx="8269.69" cy="4869.69" r="373.815" /> 
<circle cx="14769.7" cy="36269.7" r="230.315" /> 
<circle cx="14769.7" cy="39019.7" r="230.315" /> 
<circle cx="15269.7" cy="3519.69" r="230.315" /> 
<circle cx="15269.7" cy="4519.69" r="230.315" /> 
<circle cx="6269.69" cy="29269.7" r="230.315" /> 
<circle cx="4269.69" cy="29269.7" r="230.315" /> 
<circle cx="14519.7" cy="3019.69" r="230.315" /> 
<circle cx="14519.7" cy="4519.69" r="230.315" /> 
<circle cx="7269.69" cy="30019.7" r="230.315" /> 
<circle cx="4269.69" cy="30019.7" r="230.315" /> 
<circle cx="13769.7" cy="2519.69" r="230.315" /> 
<circle cx="13769.7" cy="4519.69" r="230.315" /> 
<circle cx="8269.69" cy="31269.7" r="230.315" /> 
<circle cx="27769.7" cy="31269.7" r="230.315" /> 
<circle cx="22269.7" cy="9769.69" r="230.315" /> 
<circle cx="20769.7" cy="9769.69" r="230.315" /> 
<circle cx="10269.7" cy="28519.7" r="230.315" /> 
<circle cx="8269.69" cy="28519.7" r="230.315" /> 
<circle cx="20769.7" cy="28519.7" r="230.315" /> 
<circle cx="20769.7" cy="25769.7" r="230.315" /> 
<circle cx="20769.7" cy="18269.7" r="230.315" /> 
<circle cx="20769.7" cy="17269.7" r="230.315" /> 
<circle cx="21769.7" cy="28769.7" r="230.315" /> 
<circle cx="21769.7" cy="25519.7" r="230.315" /> 
<circle cx="21769.7" cy="19519.7" r="230.315" /> 
<circle cx="21769.7" cy="17269.7" r="230.315" /> 
<circle cx="21769.7" cy="11269.7" r="230.315" /> 
<circle cx="20769.7" cy="10769.7" r="230.315" /> 
<circle cx="24769.7" cy="29019.7" r="230.315" /> 
<circle cx="24769.7" cy="26769.7" r="230.315" /> 
<circle cx="23769.7" cy="21769.7" r="230.315" /> 
<circle cx="20269.7" cy="21769.7" r="230.315" /> 
<circle cx="16519.7" cy="20769.7" r="230.315" /> 
<circle cx="12519.7" cy="20769.7" r="230.315" /> 
<circle cx="25519.7" cy="29019.7" r="230.315" /> 
<circle cx="25519.7" cy="26769.7" r="230.315" /> 
<circle cx="23769.7" cy="21019.7" r="230.315" /> 
<circle cx="20269.7" cy="21019.7" r="230.315" /> 
<circle cx="16519.7" cy="20019.7" r="230.315" /> 
<circle cx="12519.7" cy="20019.7" r="230.315" /> 
<circle cx="23019.7" cy="20269.7" r="230.315" /> 
<circle cx="20269.7" cy="20269.7" r="230.315" /> 
<circle cx="16519.7" cy="19269.7" r="230.315" /> 
<circle cx="12519.7" cy="19269.7" r="230.315" /> 
<circle cx="21269.7" cy="18769.7" r="230.315" /> 
<circle cx="21269.7" cy="16769.7" r="230.315" /> 
</g>
<g style="fill:#000000; fill-opacity:1.0; 
stroke:#000000; stroke-width:250; stroke-opacity:1; 
stroke-linecap:round; stroke-linejoin:round;">
</g>
<g style="fill:#000000; fill-opacity:0.0; 
stroke:#000000; stroke-width:250; stroke-opacity:1; 
stroke-linecap:round; stroke-linejoin:round;">
<path d="M15769 36269
L15769 34558
" />
<path d="M15769 34558
L15808 34519
" />
<path d="M15808 34519
L15808 34230
" />
<path d="M15808 33980
L16269 33519
" />
<path d="M16269 33519
L16269 32519
" />
<path d="M15808 34519
L15808 33980
" />
<path d="M17769 36269
L17769 34558
" />
<path d="M17769 34558
L17730 34519
" />
<path d="M17730 33980
L17269 33519
" />
<path d="M17269 33519
L17269 32519
" />
<path d="M17730 34519
L17730 33980
" />
</g>
<g style="fill:#000000; fill-opacity:0.0; 
stroke:#000000; stroke-width:500; stroke-opacity:1; 
stroke-linecap:round; stroke-linejoin:round;">
<path d="M15769 38269
L12769 38269
" />
<path d="M12769 38269
L12269 38769
" />
<path d="M9019 38769
L8769 38519
" />
<path d="M12269 38769
L9019 38769
" />
<path d="M8769 38519
L8769 37769
" />
<path d="M17769 38269
L15769 38269
" />
<path d="M22269 37708
L19580 37708
" />
<path d="M19580 37708
L19019 38269
" />
<path d="M19019 38269
L17769 38269
" />
<path d="M8769 37769
L4269 37769
" />
<path d="M4269 37769
L4019 37519
" />
<path d="M27769 37769
L22330 37769
" />
<path d="M22330 37769
L22269 37708
" />
</g>
<g style="fill:#000000; fill-opacity:0.0; 
stroke:#000000; stroke-width:250; stroke-opacity:1; 
stroke-linecap:round; stroke-linejoin:round;">
<path d="M14019 34519
L15269 33269
" />
<path d="M15269 33269
L15269 32519
" />
<path d="M13663 34519
L14019 34519
" />
<path d="M15269 31519
L13269 29519
" />
<path d="M13269 29519
L13269 26519
" />
<path d="M15269 32519
L15269 31519
" />
<path d="M13269 25019
L13269 26519
" />
<path d="M13163 24913
L13269 25019
" />
<path d="M13163 24769
L13163 24913
" />
</g>
<g style="fill:#000000; fill-opacity:0.0; 
stroke:#000000; stroke-width:500; stroke-opacity:1; 
stroke-linecap:round; stroke-linejoin:round;">
<path d="M13663 35163
L14769 36269
" />
<path d="M14769 39019
L14519 38769
" />
<path d="M14519 38769
L12269 38769
" />
<path d="M13663 34519
L13663 35163
" />
</g>
<g style="fill:#000000; fill-opacity:0.0; 
stroke:#000000; stroke-width:250; stroke-opacity:1; 
stroke-linecap:round; stroke-linejoin:round;">
<path d="M13163 17913
L13019 17769
" />
<path d="M13019 17769
L10769 17769
" />
<path d="M13163 24769
L13163 17913
" />
</g>
<g style="fill:#000000; fill-opacity:0.0; 
stroke:#000000; stroke-width:500; stroke-opacity:1; 
stroke-linecap:round; stroke-linejoin:round;">
<path d="M29269 37769
L29769 37269
" />
<path d="M29769 37269
L29769 5519
" />
<path d="M29769 5519
L29019 4769
" />
<path d="M29019 4769
L22413 4769
" />
<path d="M27769 37769
L29269 37769
" />
</g>
<g style="fill:#000000; fill-opacity:0.0; 
stroke:#000000; stroke-width:250; stroke-opacity:1; 
stroke-linecap:round; stroke-linejoin:round;">
<path d="M8269 869
L13969 869
" />
<path d="M16769 3669
L16769 4769
" />
<path d="M13969 869
L16769 3669
" />
</g>
<g style="fill:#000000; fill-opacity:0.0; 
stroke:#000000; stroke-width:500; stroke-opacity:1; 
stroke-linecap:round; stroke-linejoin:round;">
<path d="M22269 36330
L19458 36330
" />
<path d="M19458 36330
L18519 37269
" />
<path d="M18519 37269
L14269 37269
" />
<path d="M14269 37269
L12875 35875
" />
<path d="M12875 35875
L12875 34519
" />
</g>
<g style="fill:#000000; fill-opacity:0.0; 
stroke:#000000; stroke-width:250; stroke-opacity:1; 
stroke-linecap:round; stroke-linejoin:round;">
<path d="M9300 34519
L9300 34550
" />
<path d="M9300 34550
L10269 35519
" />
<path d="M10269 35519
L11875 35519
" />
<path d="M11875 35519
L12875 34519
" />
</g>
<g style="fill:#000000; fill-opacity:0.0; 
stroke:#000000; stroke-width:500; stroke-opacity:1; 
stroke-linecap:round; stroke-linejoin:round;">
<path d="M22269 36330
L22458 36330
" />
<path d="M22458 36330
L24769 35769
" />
<path d="M24769 35769
L27769 35769
" />
</g>
<g style="fill:#000000; fill-opacity:0.0; 
stroke:#000000; stroke-width:250; stroke-opacity:1; 
stroke-linecap:round; stroke-linejoin:round;">
<path d="M12875 34163
L13519 33519
" />
<path d="M13519 33519
L13769 33519
" />
<path d="M13769 33519
L14269 33019
" />
<path d="M14269 33019
L14269 32519
" />
<path d="M12875 34519
L12875 34163
" />
<path d="M14269 31269
L12269 29269
" />
<path d="M12269 29269
L12269 26519
" />
<path d="M14269 32519
L14269 31269
" />
<path d="M12375 25163
L12269 25269
" />
<path d="M12269 25269
L12269 26519
" />
<path d="M12375 24769
L12375 25163
" />
<path d="M16769 4769
L21625 4769
" />
</g>
<g style="fill:#000000; fill-opacity:0.0; 
stroke:#000000; stroke-width:500; stroke-opacity:1; 
stroke-linecap:round; stroke-linejoin:round;">
<path d="M28519 35769
L29019 35269
" />
<path d="M29019 35269
L29019 6519
" />
<path d="M29019 6519
L28519 6019
" />
<path d="M28519 6019
L22269 6019
" />
<path d="M22269 6019
L21625 5375
" />
<path d="M21625 5375
L21625 4769
" />
<path d="M27769 35769
L28519 35769
" />
</g>
<g style="fill:#000000; fill-opacity:0.0; 
stroke:#000000; stroke-width:250; stroke-opacity:1; 
stroke-linecap:round; stroke-linejoin:round;">
<path d="M27269 33769
L26769 33269
" />
<path d="M26769 33269
L26769 27769
" />
<path d="M26769 27769
L26519 27519
" />
<path d="M26519 27519
L19519 27519
" />
<path d="M19519 27519
L19269 27269
" />
<path d="M19269 27269
L19269 26519
" />
<path d="M27769 33769
L27269 33769
" />
<path d="M27769 34769
L27519 34769
" />
<path d="M18769 28019
L18269 27519
" />
<path d="M18269 27519
L18269 26519
" />
<path d="M27769 34769
L27269 34769
" />
<path d="M26269 28519
L25769 28019
" />
<path d="M26269 33769
L26269 28519
" />
<path d="M27269 34769
L26269 33769
" />
<path d="M25769 28019
L18769 28019
" />
<path d="M9769 37769
L11488 37769
" />
<path d="M11488 37769
L11519 37738
" />
</g>
<g style="fill:#000000; fill-opacity:0.0; 
stroke:#000000; stroke-width:200; stroke-opacity:1; 
stroke-linecap:round; stroke-linejoin:round;">
<path d="M2019 34519
L2019 37519
" />
<path d="M4269 33169
L3869 33569
" />
<path d="M1969 33969
L1969 34469
" />
<path d="M2369 33569
L1969 33969
" />
<path d="M3869 33569
L2369 33569
" />
<path d="M1969 34469
L2019 34519
" />
<path d="M5300 34519
L5300 33700
" />
<path d="M4269 33169
L4269 32519
" />
<path d="M4569 33469
L4269 33169
" />
<path d="M5069 33469
L4569 33469
" />
<path d="M5300 33700
L5069 33469
" />
</g>
<g style="fill:#000000; fill-opacity:0.0; 
stroke:#000000; stroke-width:500; stroke-opacity:1; 
stroke-linecap:round; stroke-linejoin:round;">
<path d="M1769 37519
L2019 37519
" />
</g>
<g style="fill:#000000; fill-opacity:0.0; 
stroke:#000000; stroke-width:250; stroke-opacity:1; 
stroke-linecap:round; stroke-linejoin:round;">
<path d="M11519 33269
L11269 33019
" />
<path d="M11269 33019
L11269 32519
" />
<path d="M11519 33738
L11519 33269
" />
<path d="M5269 29269
L4769 28769
" />
<path d="M4769 28769
L3519 28769
" />
<path d="M3519 28769
L2269 27519
" />
<path d="M2269 27519
L2269 25769
" />
<path d="M2269 25769
L2769 25269
" />
<path d="M2769 25269
L2769 5019
" />
<path d="M2769 5019
L4269 3519
" />
<path d="M4269 3519
L15269 3519
" />
<path d="M15269 4519
L15269 7519
" />
<path d="M15269 7519
L15519 7769
" />
<path d="M15519 7769
L16769 7769
" />
<path d="M5269 32519
L5269 29269
" />
<path d="M4269 29269
L3269 29269
" />
<path d="M3269 29269
L1769 27769
" />
<path d="M1769 27769
L1769 25769
" />
<path d="M1769 25769
L1769 25519
" />
<path d="M1769 25519
L2269 25019
" />
<path d="M2269 25019
L2269 5019
" />
<path d="M2269 5019
L2269 4769
" />
<path d="M2269 4769
L4019 3019
" />
<path d="M4019 3019
L14519 3019
" />
<path d="M14519 4519
L14519 7519
" />
<path d="M14519 7519
L15769 8769
" />
<path d="M15769 8769
L16769 8769
" />
<path d="M6269 32519
L6269 29269
" />
<path d="M4269 30019
L3269 30019
" />
<path d="M3269 30019
L1269 28019
" />
<path d="M1269 28019
L1269 25269
" />
<path d="M1269 25269
L1769 24769
" />
<path d="M1769 24769
L1769 4519
" />
<path d="M1769 4519
L3769 2519
" />
<path d="M3769 2519
L13769 2519
" />
<path d="M13769 4519
L14019 4769
" />
<path d="M14019 4769
L14019 10519
" />
<path d="M14019 10519
L15269 11769
" />
<path d="M15269 11769
L16769 11769
" />
<path d="M7269 32519
L7269 30019
" />
</g>
<g style="fill:#000000; fill-opacity:0.0; 
stroke:#000000; stroke-width:200; stroke-opacity:1; 
stroke-linecap:round; stroke-linejoin:round;">
<path d="M27769 31269
L27769 10519
" />
<path d="M27769 10519
L27019 9769
" />
<path d="M27019 9769
L22269 9769
" />
<path d="M20769 9769
L16769 9769
" />
<path d="M8269 32519
L8269 31269
" />
</g>
<g style="fill:#000000; fill-opacity:0.0; 
stroke:#000000; stroke-width:250; stroke-opacity:1; 
stroke-linecap:round; stroke-linejoin:round;">
<path d="M8269 4869
L8269 5369
" />
<path d="M8269 5369
L8669 5769
" />
<path d="M9269 27769
L9019 27519
" />
<path d="M9019 27519
L3769 27519
" />
<path d="M3769 27519
L3269 27019
" />
<path d="M3269 27019
L3269 26269
" />
<path d="M3269 26269
L3769 25769
" />
<path d="M3769 25769
L3769 6019
" />
<path d="M3769 6019
L4019 5769
" />
<path d="M4019 5769
L8669 5769
" />
<path d="M8669 5769
L10769 5769
" />
<path d="M9269 32519
L9269 27769
" />
</g>
<g style="fill:#000000; fill-opacity:0.0; 
stroke:#000000; stroke-width:200; stroke-opacity:1; 
stroke-linecap:round; stroke-linejoin:round;">
<path d="M8269 28519
L8019 28269
" />
<path d="M8019 28269
L3769 28269
" />
<path d="M3769 28269
L2769 27269
" />
<path d="M2769 27269
L2769 26019
" />
<path d="M2769 26019
L3269 25519
" />
<path d="M3269 25519
L3269 5269
" />
<path d="M3269 5269
L4519 4019
" />
<path d="M4519 4019
L15519 4019
" />
<path d="M15519 4019
L16019 4519
" />
<path d="M16019 4519
L16019 6519
" />
<path d="M16019 6519
L16269 6769
" />
<path d="M16269 6769
L16769 6769
" />
<path d="M10269 32519
L10269 28519
" />
<path d="M19269 29519
L17269 27519
" />
<path d="M17269 27519
L14019 27519
" />
<path d="M14019 27519
L13769 27269
" />
<path d="M13769 27269
L13769 17519
" />
<path d="M13769 17519
L13269 17019
" />
<path d="M13269 17019
L12269 17019
" />
<path d="M12269 17019
L11769 16519
" />
<path d="M11769 16519
L11769 5019
" />
<path d="M11769 5019
L11519 4769
" />
<path d="M11519 4769
L10769 4769
" />
<path d="M19269 32519
L19269 29519
" />
<path d="M20269 32019
L20769 31519
" />
<path d="M20769 31519
L20769 28519
" />
<path d="M20769 25769
L20769 18269
" />
<path d="M20769 17269
L20769 13269
" />
<path d="M20769 13269
L20269 12769
" />
<path d="M20269 12769
L16769 12769
" />
<path d="M20269 32519
L20269 32019
" />
<path d="M21269 29269
L21769 28769
" />
<path d="M21769 25519
L21769 19519
" />
<path d="M21769 17269
L21769 11269
" />
<path d="M20769 10769
L16769 10769
" />
<path d="M21269 32519
L21269 29269
" />
</g>
<g style="fill:#000000; fill-opacity:0.0; 
stroke:#000000; stroke-width:250; stroke-opacity:1; 
stroke-linecap:round; stroke-linejoin:round;">
<path d="M22269 32019
L22769 31519
" />
<path d="M22769 31519
L24519 31519
" />
<path d="M24519 31519
L24769 31269
" />
<path d="M24769 31269
L24769 29019
" />
<path d="M24769 26769
L24769 22269
" />
<path d="M24769 22269
L24269 21769
" />
<path d="M24269 21769
L23769 21769
" />
<path d="M20269 21769
L19269 20769
" />
<path d="M19269 20769
L16519 20769
" />
<path d="M12519 20769
L10519 20769
" />
<path d="M10519 20769
L9019 19269
" />
<path d="M9019 19269
L9019 15769
" />
<path d="M9019 15769
L10019 14769
" />
<path d="M10019 14769
L10769 14769
" />
<path d="M22269 32519
L22269 32019
" />
<path d="M24769 32519
L25519 31769
" />
<path d="M25519 31769
L25519 29019
" />
<path d="M25519 26769
L25519 21519
" />
<path d="M25519 21519
L25019 21019
" />
<path d="M25019 21019
L23769 21019
" />
<path d="M20269 21019
L19269 20019
" />
<path d="M19269 20019
L16519 20019
" />
<path d="M12519 20019
L10769 20019
" />
<path d="M10769 20019
L9519 18769
" />
<path d="M9519 18769
L9519 16269
" />
<path d="M9519 16269
L10019 15769
" />
<path d="M10019 15769
L10769 15769
" />
<path d="M23269 32519
L24769 32519
" />
<path d="M23269 20519
L23019 20269
" />
<path d="M20269 20269
L19269 19269
" />
<path d="M19269 19269
L16519 19269
" />
<path d="M12519 19269
L11019 19269
" />
<path d="M11019 19269
L10019 18269
" />
<path d="M10019 18269
L10019 17519
" />
<path d="M10019 17519
L10769 16769
" />
<path d="M23269 26519
L23269 20519
" />
<path d="M22269 18269
L21769 17769
" />
<path d="M21769 17769
L16769 17769
" />
<path d="M22269 26519
L22269 18269
" />
<path d="M21269 16769
L21269 6269
" />
<path d="M21269 6269
L20769 5769
" />
<path d="M20769 5769
L16769 5769
" />
<path d="M21269 26519
L21269 18769
" />
<path d="M16019 16769
L16769 16769
" />
<path d="M15769 17019
L16019 16769
" />
<path d="M15769 24769
L15769 17019
" />
<path d="M17269 26269
L15769 24769
" />
<path d="M17269 26519
L17269 26269
" />
<path d="M15269 25519
L15269 16019
" />
<path d="M15269 16019
L15519 15769
" />
<path d="M15519 15769
L16769 15769
" />
<path d="M16269 26519
L15269 25519
" />
<path d="M15019 14769
L16769 14769
" />
<path d="M14769 15019
L15019 14769
" />
<path d="M14769 25769
L14769 15019
" />
<path d="M15269 26269
L14769 25769
" />
<path d="M15269 26519
L15269 26269
" />
<path d="M14269 14019
L14519 13769
" />
<path d="M14519 13769
L16769 13769
" />
<path d="M14269 26519
L14269 14019
" />
<path d="M8019 13769
L10769 13769
" />
<path d="M7769 14019
L8019 13769
" />
<path d="M7769 23269
L7769 14019
" />
<path d="M11019 26519
L7769 23269
" />
<path d="M11269 26519
L11019 26519
" />
<path d="M7269 23519
L7269 13019
" />
<path d="M7269 13019
L7519 12769
" />
<path d="M7519 12769
L10769 12769
" />
<path d="M10269 26519
L7269 23519
" />
<path d="M7019 11769
L10769 11769
" />
<path d="M6769 12019
L7019 11769
" />
<path d="M6769 23769
L6769 12019
" />
<path d="M9269 26269
L6769 23769
" />
<path d="M9269 26519
L9269 26269
" />
<path d="M6519 10769
L10769 10769
" />
<path d="M6269 11019
L6519 10769
" />
<path d="M6269 24269
L6269 11019
" />
<path d="M8269 26269
L6269 24269
" />
<path d="M8269 26519
L8269 26269
" />
<path d="M7269 26019
L6019 24769
" />
<path d="M6019 24769
L5769 24769
" />
<path d="M5769 24769
L5769 10019
" />
<path d="M5769 10019
L6019 9769
" />
<path d="M6019 9769
L10769 9769
" />
<path d="M7269 26519
L7269 26019
" />
<path d="M6269 26019
L5269 25019
" />
<path d="M5269 25019
L5269 9019
" />
<path d="M5269 9019
L5519 8769
" />
<path d="M5519 8769
L10769 8769
" />
<path d="M6269 26519
L6269 26019
" />
<path d="M5269 26019
L4769 25519
" />
<path d="M4769 25519
L4769 8019
" />
<path d="M4769 8019
L5019 7769
" />
<path d="M5019 7769
L10769 7769
" />
<path d="M5269 26519
L5269 26019
" />
<path d="M4269 7019
L4519 6769
" />
<path d="M4519 6769
L10769 6769
" />
<path d="M4269 26519
L4269 7019
" />
</g>
<g style="fill:#000000; fill-opacity:1.0; 
stroke:#000000; stroke-width:100; stroke-opacity:1; 
stroke-linecap:round; stroke-linejoin:round;">
<polyline style="fill-rule:evenodd;"
points="13225,24224
13028,24234
12923,24277
12792,24146
12522,24034
12230,24034
11959,24146
11752,24352
11640,24622
11640,24915
11728,25129
11700,25269
11700,25934
11677,25910
11413,25801
11127,25800
11111,25807
8338,23034
8338,14338
9661,14338
9617,14367
9617,14367
8617,15367
8494,15552
8450,15769
8450,19269
8494,19487
8617,19671
10117,21171
10302,21295
10519,21338
10519,21338
10519,21338
12107,21338
12126,21357
12381,21463
12657,21463
12912,21358
13107,21163
13213,20908
13213,20632
13115,20394
13213,20158
13213,19882
13115,19644
13213,19408
13213,19132
13108,18877
12913,18681
12658,18576
12382,18575
12127,18681
12107,18700
11299,18700
11299,17845
11288,17636
11230,17496
11137,17472
10840,17769
11137,18066
11230,18042
11299,17845
11299,18700
11255,18700
10845,18291
10902,18288
11042,18230
11066,18137
10769,17840
10764,17845
10693,17775
10698,17769
10693,17764
10764,17693
10769,17698
11028,17440
11176,17379
11378,17177
11460,16979
11885,17404
11885,17404
12061,17521
12269,17563
13044,17563
13225,17744
13225,24224
" /> 
<polyline style="fill-rule:evenodd;"
points="13225,24789
13169,24845
13163,24840
13158,24845
13110,24798
13110,24740
13158,24693
13163,24698
13169,24693
13225,24750
13225,24789
" /> 
<polyline style="fill-rule:evenodd;"
points="18725,31959
18677,31910
18413,31801
18127,31800
17863,31910
17769,32003
17677,31910
17413,31801
17127,31800
16863,31910
16769,32003
16677,31910
16413,31801
16127,31800
15863,31910
15660,32112
15598,32261
15566,32293
15566,32151
15542,32059
15345,31989
15136,32001
14996,32059
14972,32151
15269,32448
15566,32151
15566,32293
15340,32519
15598,32778
15660,32926
15700,32967
15700,33284
15566,33418
15566,32887
15269,32590
14972,32887
14996,32980
15193,33049
15402,33038
15542,32980
15566,32887
15566,33418
15406,33578
15283,33763
15282,33766
15216,33810
15035,34082
14971,34402
14971,34636
15035,34956
15200,35204
15200,35821
15160,35862
15051,36126
15050,36412
15118,36575
14557,36575
14210,36228
14210,34599
14198,34384
14137,34236
14043,34210
13734,34519
14043,34828
14137,34802
14210,34599
14210,36228
13569,35588
13569,35060
13583,35066
13799,35054
13946,34993
13972,34899
13663,34590
13658,34595
13610,34548
13610,34490
13658,34443
13663,34448
13972,34139
13948,34052
13987,34045
14171,33921
14671,33421
14795,33237
14795,33237
14838,33019
14838,32967
14878,32927
14940,32778
15198,32519
14940,32261
14879,32113
14838,32072
14838,31269
14795,31052
14671,30867
12838,29034
12838,26967
12878,26927
12940,26778
13198,26519
12940,26261
12879,26113
12838,26072
12838,25475
12901,25381
12925,25259
12925,25259
13083,25316
13225,25308
13225,25996
13136,26001
12996,26059
12972,26151
13225,26405
13225,26634
12972,26887
12996,26980
13193,27049
13225,27047
13225,27269
13267,27477
13385,27654
13635,27904
13811,28021
14019,28063
17044,28063
18725,29744
18725,31959
" /> 
<polyline style="fill-rule:evenodd;"
points="29806,39056
28402,39056
28402,37911
28354,37819
27819,37819
27819,38297
27912,38354
28129,38278
28301,38124
28401,37917
28402,37911
28402,39056
27719,39056
27719,38297
27719,37819
27184,37819
27136,37911
27137,37917
27237,38124
27409,38278
27627,38354
27719,38297
27719,39056
22819,39056
22819,37789
22808,37572
22747,37423
22652,37396
22581,37467
22581,37326
22554,37231
22350,37158
22133,37169
21984,37231
21957,37326
22269,37637
22581,37326
22581,37467
22340,37708
22652,38020
22747,37993
22819,37789
22819,39056
22581,39056
22581,38091
22269,37779
22198,37850
22198,37708
21887,37396
21792,37423
21719,37627
21730,37844
21792,37993
21887,38020
22198,37708
22198,37850
21957,38091
21984,38186
22188,38258
22405,38247
22554,38186
22581,38091
22581,39056
18299,39056
18066,39056
18066,38637
17769,38340
17698,38411
17472,38637
17496,38730
17693,38799
17902,38788
18042,38730
18066,38637
18066,39056
16299,39056
16066,39056
16066,38637
15769,38340
15698,38411
15472,38637
15496,38730
15693,38799
15902,38788
16042,38730
16066,38637
16066,39056
12357,39056
12357,37572
12229,37265
11994,37029
11686,36901
11353,36901
11046,37028
10873,37200
10295,37200
10208,37114
9924,36996
9616,36995
9331,37113
9114,37330
9104,37354
9075,37263
8858,37185
8628,37195
8463,37263
8432,37362
8769,37698
8775,37693
8845,37764
8840,37769
8845,37775
8775,37845
8769,37840
8698,37911
8698,37769
8362,37432
8263,37463
8185,37680
8195,37911
8263,38075
8362,38106
8698,37769
8698,37911
8432,38177
8463,38275
8680,38354
8911,38343
9075,38275
9104,38185
9113,38207
9330,38425
9615,38543
9922,38543
10207,38425
10295,38338
10935,38338
11044,38448
11352,38575
11685,38576
11993,38448
12229,38213
12356,37905
12357,37572
12357,39056
4569,39056
4569,37600
4558,37383
4497,37234
4402,37207
4331,37278
4331,37137
4331,34902
4019,34590
3948,34661
3948,34519
3637,34207
3542,34234
3469,34439
3480,34655
3542,34804
3637,34831
3948,34519
3948,34661
3707,34902
3734,34997
3939,35069
4155,35058
4304,34997
4331,34902
4331,37137
4304,37042
4100,36969
3883,36980
3734,37042
3707,37137
4019,37448
4331,37137
4331,37278
4090,37519
4402,37831
4497,37804
4569,37600
4569,39056
4331,39056
4331,37902
4019,37590
3948,37661
3948,37519
3637,37207
3542,37234
3469,37439
3480,37655
3542,37804
3637,37831
3948,37519
3948,37661
3707,37902
3734,37997
3939,38069
4155,38058
4304,37997
4331,37902
4331,39056
483,39056
483,483
7523,483
7432,702
7432,1035
7559,1343
7794,1579
8102,1706
8435,1707
8743,1579
8885,1438
13734,1438
14621,2326
14440,2325
14358,2127
14163,1931
13908,1826
13632,1825
13377,1931
13357,1950
3769,1950
3552,1994
3367,2117
1367,4117
1244,4302
1200,4519
1200,24534
867,24867
744,25052
700,25269
700,28019
744,28237
867,28421
2867,30421
3052,30545
3269,30588
3857,30588
3876,30607
4131,30713
4407,30713
4662,30608
4700,30569
4700,31829
4632,31800
4456,31800
3906,31800
3743,31868
3618,31993
3550,32156
3550,32332
3550,32882
3610,33025
2369,33025
2161,33067
1985,33185
1585,33585
1467,33761
1425,33969
1425,34068
1393,34100
1280,34372
1280,34666
1392,34937
1475,35021
1475,36897
1279,37029
1128,37254
1075,37519
1128,37785
1279,38010
1504,38160
1757,38210
1872,38258
2166,38258
2437,38146
2645,37938
2758,37667
2758,37373
2646,37101
2563,37018
2563,35021
2645,34938
2758,34667
2758,34373
2651,34113
3714,34113
3707,34137
4019,34448
4331,34137
4304,34042
4185,33999
4254,33954
4286,33921
4361,33971
4569,34013
4622,34013
4591,34044
4504,34253
4497,34234
4402,34207
4090,34519
4402,34831
4497,34804
4504,34784
4590,34993
4825,35229
5133,35356
5466,35357
5774,35229
6010,34994
6137,34686
6138,34353
6010,34046
5844,33879
5844,33700
5802,33492
5685,33316
5550,33181
5676,33129
5769,33036
5862,33128
6126,33238
6412,33238
6676,33129
6769,33036
6862,33128
7126,33238
7412,33238
7676,33129
7769,33036
7862,33128
8126,33238
8412,33238
8676,33129
8769,33036
8862,33128
9126,33238
9412,33238
9676,33129
9769,33036
9862,33128
10126,33238
10412,33238
10676,33129
10715,33090
10744,33237
10791,33308
10682,33571
10682,33904
10809,34212
11044,34448
11352,34575
11685,34576
11993,34448
12190,34251
12140,34372
12140,34450
11640,34950
10505,34950
10137,34583
10138,34353
10010,34046
9775,33810
9467,33682
9134,33682
8827,33809
8591,34044
8463,34352
8463,34685
8590,34993
8825,35229
9133,35356
9302,35356
9867,35921
10052,36045
10052,36045
10269,36088
11875,36088
12093,36045
12201,35972
12234,36141
12385,36366
13779,37760
14004,37910
14269,37963
15392,37963
15401,37972
15309,37996
15239,38193
15251,38402
15309,38542
15401,38566
15698,38269
15693,38264
15764,38193
15769,38198
15775,38193
15845,38264
15840,38269
16137,38566
16230,38542
16299,38345
16288,38136
16230,37996
16137,37972
16146,37963
17392,37963
17401,37972
17309,37996
17239,38193
17251,38402
17309,38542
17401,38566
17698,38269
17693,38264
17764,38193
17769,38198
17775,38193
17845,38264
17840,38269
18137,38566
18230,38542
18299,38345
18288,38136
18230,37996
18137,37972
18146,37963
18519,37963
18785,37910
18785,37910
19010,37760
19746,37024
22012,37024
22122,37069
22416,37070
22568,37007
22622,37004
24852,36463
26973,36463
26969,36469
26909,36769
26969,37069
27138,37323
27253,37400
27237,37414
27137,37622
27136,37628
27184,37719
27719,37719
27719,37711
27819,37711
27819,37719
28354,37719
28402,37628
28401,37622
28301,37414
28285,37400
28400,37323
28570,37069
28629,36769
28570,36469
28560,36455
28785,36410
28785,36410
29010,36260
29510,35760
29660,35535
29660,35535
29713,35269
29713,6519
29660,6254
29660,6254
29510,6029
29010,5529
28785,5378
28519,5325
22960,5325
22960,4849
22948,4634
22887,4486
22793,4460
22484,4769
22793,5078
22887,5052
22960,4849
22960,5325
22557,5325
22536,5305
22549,5304
22696,5243
22722,5149
22413,4840
22408,4845
22360,4798
22360,4740
22408,4693
22413,4698
22722,4389
22696,4295
22493,4223
22278,4234
22173,4277
22042,4146
21772,4034
21480,4034
21209,4146
21154,4200
17338,4200
17338,3669
17295,3452
17171,3267
14387,483
29806,483
29806,39056
" /> 
</g>
<g style="fill:#FFFFFF; fill-opacity:1.0; 
stroke:#FFFFFF; stroke-width:39.3701; stroke-opacity:1; 
stroke-linecap:round; stroke-linejoin:round;">
<circle cx="14769.7" cy="36269.7" r="137.795" /> 
<circle cx="14769.7" cy="39019.7" r="137.795" /> 
<circle cx="15269.7" cy="3519.69" r="137.795" /> 
<circle cx="15269.7" cy="4519.69" r="137.795" /> 
<circle cx="6269.69" cy="29269.7" r="137.795" /> 
<circle cx="4269.69" cy="29269.7" r="137.795" /> 
<circle cx="14519.7" cy="3019.69" r="137.795" /> 
<circle cx="14519.7" cy="4519.69" r="137.795" /> 
<circle cx="7269.69" cy="30019.7" r="137.795" /> 
<circle cx="4269.69" cy="30019.7" r="137.795" /> 
<circle cx="13769.7" cy="2519.69" r="137.795" /> 
<circle cx="13769.7" cy="4519.69" r="137.795" /> 
<circle cx="8269.69" cy="31269.7" r="137.795" /> 
<circle cx="27769.7" cy="31269.7" r="137.795" /> 
<circle cx="22269.7" cy="9769.69" r="137.795" /> 
<circle cx="20769.7" cy="9769.69" r="137.795" /> 
<circle cx="10269.7" cy="28519.7" r="137.795" /> 
<circle cx="8269.69" cy="28519.7" r="137.795" /> 
<circle cx="20769.7" cy="28519.7" r="137.795" /> 
<circle cx="20769.7" cy="25769.7" r="137.795" /> 
<circle cx="20769.7" cy="18269.7" r="137.795" /> 
<circle cx="20769.7" cy="17269.7" r="137.795" /> 
<circle cx="21769.7" cy="28769.7" r="137.795" /> 
<circle cx="21769.7" cy="25519.7" r="137.795" /> 
<circle cx="21769.7" cy="19519.7" r="137.795" /> 
<circle cx="21769.7" cy="17269.7" r="137.795" /> 
<circle cx="21769.7" cy="11269.7" r="137.795" /> 
<circle cx="20769.7" cy="10769.7" r="137.795" /> 
<circle cx="24769.7" cy="29019.7" r="137.795" /> 
<circle cx="24769.7" cy="26769.7" r="137.795" /> 
<circle cx="23769.7" cy="21769.7" r="137.795" /> 
<circle cx="20269.7" cy="21769.7" r="137.795" /> 
<circle cx="16519.7" cy="20769.7" r="137.795" /> 
<circle cx="12519.7" cy="20769.7" r="137.795" /> 
<circle cx="25519.7" cy="29019.7" r="137.795" /> 
<circle cx="25519.7" cy="26769.7" r="137.795" /> 
<circle cx="23769.7" cy="21019.7" r="137.795" /> 
<circle cx="20269.7" cy="21019.7" r="137.795" /> 
<circle cx="16519.7" cy="20019.7" r="137.795" /> 
<circle cx="12519.7" cy="20019.7" r="137.795" /> 
<circle cx="23019.7" cy="20269.7" r="137.795" /> 
<circle cx="20269.7" cy="20269.7" r="137.795" /> 
<circle cx="16519.7" cy="19269.7" r="137.795" /> 
<circle cx="12519.7" cy="19269.7" r="137.795" /> 
<circle cx="21269.7" cy="18769.7" r="137.795" /> 
<circle cx="21269.7" cy="16769.7" r="137.795" /> 
<circle cx="2019.69" cy="34519.7" r="137.795" /> 
<circle cx="4019.69" cy="34519.7" r="137.795" /> 
<circle cx="2019.69" cy="37519.7" r="137.795" /> 
<circle cx="4019.69" cy="37519.7" r="137.795" /> 
<circle cx="22269.7" cy="37708.7" r="137.815" /> 
<circle cx="22269.7" cy="36330.7" r="137.815" /> 
<circle cx="12375.7" cy="24769.7" r="137.815" /> 
<circle cx="13163.7" cy="24769.7" r="137.815" /> 
<circle cx="21625.7" cy="4769.69" r="137.815" /> 
<circle cx="22413.7" cy="4769.69" r="137.815" /> 
<circle cx="12875.7" cy="34519.7" r="137.815" /> 
<circle cx="13663.7" cy="34519.7" r="137.815" /> 
<circle cx="27769.7" cy="32769.7" r="180.315" /> 
<circle cx="27769.7" cy="33769.7" r="180.315" /> 
<circle cx="27769.7" cy="34769.7" r="180.315" /> 
<circle cx="27769.7" cy="35769.7" r="180.315" /> 
<circle cx="27769.7" cy="36769.7" r="180.315" /> 
<circle cx="27769.7" cy="37769.7" r="180.315" /> 
<circle cx="9769.69" cy="37769.7" r="140.315" /> 
<circle cx="8769.69" cy="37769.7" r="140.315" /> 
<circle cx="5300.69" cy="34519.7" r="177.315" /> 
<circle cx="9300.69" cy="34519.7" r="177.315" /> 
<circle cx="11519.7" cy="37738.7" r="177.315" /> 
<circle cx="11519.7" cy="33738.7" r="177.315" /> 
<circle cx="15808.7" cy="34519.7" r="216.315" /> 
<circle cx="17730.7" cy="34519.7" r="216.315" /> 
<circle cx="15769.7" cy="36269.7" r="140.315" /> 
<circle cx="15769.7" cy="38269.7" r="140.315" /> 
<circle cx="17769.7" cy="36269.7" r="140.315" /> 
<circle cx="17769.7" cy="38269.7" r="140.315" /> 
<circle cx="4269.69" cy="32519.7" r="140.315" /> 
<circle cx="5269.69" cy="32519.7" r="140.315" /> 
<circle cx="6269.69" cy="32519.7" r="140.315" /> 
<circle cx="7269.69" cy="32519.7" r="140.315" /> 
<circle cx="8269.69" cy="32519.7" r="140.315" /> 
<circle cx="9269.69" cy="32519.7" r="140.315" /> 
<circle cx="10269.7" cy="32519.7" r="140.315" /> 
<circle cx="11269.7" cy="32519.7" r="140.315" /> 
<circle cx="12269.7" cy="32519.7" r="140.315" /> 
<circle cx="13269.7" cy="32519.7" r="140.315" /> 
<circle cx="14269.7" cy="32519.7" r="140.315" /> 
<circle cx="15269.7" cy="32519.7" r="140.315" /> 
<circle cx="16269.7" cy="32519.7" r="140.315" /> 
<circle cx="17269.7" cy="32519.7" r="140.315" /> 
<circle cx="18269.7" cy="32519.7" r="140.315" /> 
<circle cx="19269.7" cy="32519.7" r="140.315" /> 
<circle cx="20269.7" cy="32519.7" r="140.315" /> 
<circle cx="21269.7" cy="32519.7" r="140.315" /> 
<circle cx="22269.7" cy="32519.7" r="140.315" /> 
<circle cx="23269.7" cy="32519.7" r="140.315" /> 
<circle cx="23269.7" cy="26519.7" r="140.315" /> 
<circle cx="22269.7" cy="26519.7" r="140.315" /> 
<circle cx="21269.7" cy="26519.7" r="140.315" /> 
<circle cx="20269.7" cy="26519.7" r="140.315" /> 
<circle cx="19269.7" cy="26519.7" r="140.315" /> 
<circle cx="18269.7" cy="26519.7" r="140.315" /> 
<circle cx="17269.7" cy="26519.7" r="140.315" /> 
<circle cx="16269.7" cy="26519.7" r="140.315" /> 
<circle cx="15269.7" cy="26519.7" r="140.315" /> 
<circle cx="14269.7" cy="26519.7" r="140.315" /> 
<circle cx="13269.7" cy="26519.7" r="140.315" /> 
<circle cx="12269.7" cy="26519.7" r="140.315" /> 
<circle cx="11269.7" cy="26519.7" r="140.315" /> 
<circle cx="10269.7" cy="26519.7" r="140.315" /> 
<circle cx="9269.69" cy="26519.7" r="140.315" /> 
<circle cx="8269.69" cy="26519.7" r="140.315" /> 
<circle cx="7269.69" cy="26519.7" r="140.315" /> 
<circle cx="6269.69" cy="26519.7" r="140.315" /> 
<circle cx="5269.69" cy="26519.7" r="140.315" /> 
<circle cx="4269.69" cy="26519.7" r="140.315" /> 
<circle cx="10769.7" cy="4769.69" r="140.315" /> 
<circle cx="10769.7" cy="5769.69" r="140.315" /> 
<circle cx="10769.7" cy="6769.69" r="140.315" /> 
<circle cx="10769.7" cy="7769.69" r="140.315" /> 
<circle cx="10769.7" cy="8769.69" r="140.315" /> 
<circle cx="10769.7" cy="9769.69" r="140.315" /> 
<circle cx="10769.7" cy="10769.7" r="140.315" /> 
<circle cx="10769.7" cy="11769.7" r="140.315" /> 
<circle cx="10769.7" cy="12769.7" r="140.315" /> 
<circle cx="10769.7" cy="13769.7" r="140.315" /> 
<circle cx="10769.7" cy="14769.7" r="140.315" /> 
<circle cx="10769.7" cy="15769.7" r="140.315" /> 
<circle cx="10769.7" cy="16769.7" r="140.315" /> 
<circle cx="10769.7" cy="17769.7" r="140.315" /> 
<circle cx="16769.7" cy="17769.7" r="140.315" /> 
<circle cx="16769.7" cy="16769.7" r="140.315" /> 
<circle cx="16769.7" cy="15769.7" r="140.315" /> 
<circle cx="16769.7" cy="14769.7" r="140.315" /> 
<circle cx="16769.7" cy="13769.7" r="140.315" /> 
<circle cx="16769.7" cy="12769.7" r="140.315" /> 
<circle cx="16769.7" cy="11769.7" r="140.315" /> 
<circle cx="16769.7" cy="10769.7" r="140.315" /> 
<circle cx="16769.7" cy="9769.69" r="140.315" /> 
<circle cx="16769.7" cy="8769.69" r="140.315" /> 
<circle cx="16769.7" cy="7769.69" r="140.315" /> 
<circle cx="16769.7" cy="6769.69" r="140.315" /> 
<circle cx="16769.7" cy="5769.69" r="140.315" /> 
<circle cx="16769.7" cy="4769.69" r="140.315" /> 
<circle cx="8269.69" cy="869.685" r="177.315" /> 
<circle cx="8269.69" cy="4869.69" r="177.315" /> 
</g> 
</svg>
